# xmcd CD database file
#
# Track frame offsets:
#	150
#	18245
#	33261
#	45993
#	60762
#	75581
#	95332
#	108443
#	120692
#
# Disc length: 1801 seconds
#
# Revision: 1
# Processed by: cddbd v1.5.2PL0 Copyright (c) Steve Scherf et al.
# Submitted via: CDex 1.70beta3
#
DISCID=5a070709
DTITLE=Shino Inagi - EL Segundo
DYEAR=2009
DGENRE=Jazz
TTITLE0=Conga
TTITLE1=Tintarella Di Luna
TTITLE2=La Banba
TTITLE3=Carlito(Who's That Boy)
TTITLE4=Toxic
TTITLE5=Open Your Heart
TTITLE6=Corazon De Melon
TTITLE7=Ay Cosita Linda
TTITLE8=Don't Know Why
EXTD=YEAR: 2009
EXTT0=
EXTT1=
EXTT2=
EXTT3=
EXTT4=
EXTT5=
EXTT6=
EXTT7=
EXTT8=
PLAYORDER=
